<svg width="3072" height="2048" viewBox="0 0 3072 2048" xmlns="http://www.w3.org/2000/svg">
  <g transform="translate(693.91,491.30) scale(0.440748)"><g transform="translate(0.000000,1104.000000) scale(0.100000,-0.100000)"
fill="#ABCD38" stroke="none">
<path d="M4538 9906 c-327 -30 -329 -30 -483 -75 -71 -21 -179 -50 -240 -65
-61 -15 -146 -44 -190 -66 -44 -21 -116 -48 -161 -59 -45 -12 -107 -37 -140
-56 -32 -20 -90 -45 -129 -57 -38 -11 -96 -36 -127 -55 -31 -18 -89 -47 -129
-63 -40 -17 -88 -42 -106 -56 -18 -14 -66 -41 -106 -61 -39 -20 -87 -48 -105
-64 -18 -16 -56 -41 -85 -55 -29 -15 -81 -50 -117 -78 -36 -29 -78 -60 -95
-70 -16 -10 -41 -32 -53 -48 -13 -16 -42 -38 -64 -49 -21 -11 -60 -40 -86 -65
-26 -25 -111 -104 -189 -175 -78 -71 -206 -198 -284 -282 -78 -83 -156 -165
-174 -182 -18 -16 -44 -49 -58 -71 -14 -23 -40 -52 -57 -64 -17 -12 -42 -43
-55 -70 -13 -26 -36 -57 -50 -68 -14 -11 -46 -58 -71 -104 -25 -45 -56 -94
-69 -108 -13 -14 -34 -48 -48 -76 -14 -28 -37 -64 -50 -80 -26 -31 -70 -113
-82 -154 -4 -14 -23 -47 -43 -73 -19 -27 -49 -88 -67 -135 -17 -48 -43 -104
-57 -124 -14 -20 -38 -76 -53 -125 -16 -48 -45 -123 -66 -165 -21 -42 -50
-125 -65 -185 -14 -59 -39 -137 -54 -173 -16 -36 -42 -135 -60 -220 -17 -85
-35 -168 -40 -183 -5 -15 -22 -99 -37 -185 l-28 -157 0 -530 c0 -535 6 -649
40 -800 13 -55 27 -136 70 -414 10 -61 30 -138 49 -185 18 -45 45 -133 60
-195 15 -62 43 -149 63 -194 19 -44 46 -119 60 -166 13 -47 40 -114 59 -148
19 -35 46 -92 59 -127 13 -36 42 -89 65 -118 22 -29 40 -58 40 -64 0 -6 25
-48 56 -94 30 -46 67 -106 81 -134 14 -28 36 -62 48 -76 13 -14 40 -56 61 -95
20 -38 56 -90 79 -115 24 -25 50 -59 59 -77 9 -18 32 -44 51 -59 19 -14 44
-43 56 -63 11 -20 35 -47 54 -60 19 -12 42 -35 51 -49 41 -62 377 -400 435
-438 20 -12 46 -36 58 -53 12 -16 38 -40 59 -52 20 -13 52 -40 70 -60 18 -21
49 -48 70 -60 20 -12 53 -37 72 -54 19 -18 67 -52 105 -75 39 -24 84 -56 100
-71 17 -15 52 -37 79 -49 27 -11 70 -36 95 -54 25 -19 71 -44 101 -57 30 -12
82 -40 115 -60 33 -21 85 -47 115 -59 30 -12 91 -39 135 -60 44 -21 121 -53
170 -71 50 -17 113 -43 140 -57 57 -28 110 -44 241 -71 50 -11 115 -30 145
-44 68 -32 104 -41 259 -66 69 -11 163 -31 210 -45 122 -35 183 -44 380 -55
542 -31 1064 -16 1265 35 33 8 121 26 195 40 177 33 278 58 336 85 75 34 119
47 207 64 53 10 119 33 187 65 58 28 110 50 116 50 27 0 144 45 184 70 25 16
81 41 125 55 44 15 98 40 119 57 21 17 73 45 115 61 42 16 90 42 108 57 17 15
65 44 107 64 42 20 91 50 109 65 17 16 55 40 84 54 28 15 54 31 58 37 3 5 34
29 68 52 105 70 364 300 554 491 163 163 190 191 215 232 14 22 36 49 48 60
12 11 49 54 81 96 32 42 65 84 73 92 8 8 29 39 47 68 17 30 44 72 60 94 78
108 142 206 172 266 19 37 46 82 60 101 15 19 45 75 68 124 22 49 49 100 59
114 9 14 29 57 44 95 15 39 44 108 65 155 21 47 51 128 66 180 14 52 42 131
62 175 19 45 46 133 60 200 13 66 38 159 54 207 31 88 38 129 85 448 13 96 29
191 34 210 6 19 15 145 22 280 16 334 4 505 -61 890 -63 369 -67 392 -91 465
-11 33 -31 115 -44 181 -14 67 -36 144 -49 170 -14 27 -44 108 -67 179 -24 72
-55 155 -70 185 -15 30 -40 84 -56 120 -15 36 -35 76 -45 90 -9 14 -37 66 -62
117 -25 50 -60 111 -77 135 -17 23 -39 61 -49 83 -10 22 -39 67 -64 101 -25
33 -57 83 -71 110 -14 27 -37 60 -51 74 -15 14 -36 43 -47 65 -11 22 -37 58
-57 81 -38 43 -108 137 -178 238 -24 33 -65 86 -93 116 -98 108 -175 191 -193
208 -10 9 -47 45 -82 80 -35 34 -69 62 -75 62 -6 0 -36 24 -69 53 -61 55 -159
130 -239 184 -26 17 -65 47 -88 67 -22 19 -63 46 -91 59 -28 13 -67 37 -87 54
-19 17 -65 48 -103 69 -37 20 -81 50 -98 65 -16 15 -55 39 -85 52 -30 14 -79
43 -109 66 -30 22 -75 48 -100 58 -25 9 -72 34 -104 55 -32 20 -79 44 -105 54
-26 9 -89 36 -141 60 -51 24 -139 56 -195 70 -55 14 -143 41 -194 60 -51 19
-132 44 -180 54 -48 11 -139 33 -202 50 -179 48 -235 58 -370 70 -69 6 -188
17 -265 26 -247 27 -742 27 -1047 0z m1014 -266 c103 -10 357 -74 418 -105 43
-22 63 -51 52 -72 -27 -49 -202 -116 -359 -138 -142 -19 -285 -55 -352 -89
-37 -19 -94 -32 -225 -51 -248 -36 -273 -42 -330 -74 -67 -37 -126 -55 -266
-82 -63 -12 -141 -32 -172 -45 -59 -25 -135 -35 -383 -54 -95 -7 -179 -20
-260 -41 -66 -17 -200 -51 -297 -75 -97 -24 -210 -57 -250 -73 -95 -38 -222
-47 -244 -16 -22 30 -17 43 29 71 23 15 65 50 92 78 28 29 78 67 113 86 35 18
68 42 73 52 5 10 40 33 77 52 38 19 74 42 82 51 15 18 123 79 159 90 13 4 53
27 88 51 37 25 93 52 136 64 39 12 107 39 149 61 59 29 105 44 195 60 65 11
145 31 178 44 120 46 209 64 460 90 83 8 188 24 235 36 153 37 395 48 602 29z
m1524 -316 c44 -19 95 -50 114 -68 19 -18 56 -45 83 -60 26 -15 54 -37 62 -50
9 -13 38 -36 67 -51 28 -15 75 -50 104 -76 29 -27 71 -57 93 -69 22 -11 52
-36 67 -55 15 -20 41 -43 58 -52 17 -8 54 -37 81 -64 28 -26 79 -74 115 -106
109 -98 457 -450 502 -508 24 -31 58 -77 75 -103 18 -26 43 -56 55 -67 13 -11
44 -49 70 -85 27 -36 61 -81 77 -100 40 -47 139 -212 147 -244 9 -36 -38 -81
-93 -91 -23 -3 -49 -12 -59 -20 -17 -12 -16 -14 17 -34 20 -12 50 -38 67 -60
21 -26 42 -41 66 -45 109 -21 209 -99 271 -211 15 -27 35 -61 45 -75 17 -25
62 -156 75 -220 4 -19 20 -57 35 -85 15 -27 39 -82 54 -121 15 -39 40 -93 57
-119 41 -64 49 -86 64 -175 21 -125 65 -328 81 -373 42 -118 83 -829 71 -1207
-12 -348 -32 -512 -82 -665 -13 -39 -33 -122 -45 -185 -27 -146 -46 -211 -80
-280 -15 -30 -37 -85 -49 -122 -11 -37 -34 -88 -51 -115 -17 -26 -44 -77 -61
-112 -17 -36 -41 -79 -54 -95 -22 -29 -95 -178 -95 -194 0 -4 -14 -27 -30 -52
-17 -25 -42 -76 -58 -115 -16 -43 -41 -83 -63 -105 -20 -19 -46 -55 -59 -79
-12 -24 -53 -77 -91 -117 -38 -40 -69 -77 -69 -82 0 -5 -18 -29 -41 -53 -22
-24 -49 -60 -59 -79 -10 -19 -30 -46 -45 -60 -14 -14 -38 -46 -52 -73 -15 -26
-42 -57 -60 -68 -18 -12 -41 -35 -49 -51 -31 -60 -389 -399 -447 -423 -18 -7
-48 -30 -67 -50 -19 -20 -46 -43 -60 -50 -14 -7 -47 -31 -73 -53 -30 -24 -78
-49 -127 -66 -44 -16 -103 -46 -132 -67 -29 -21 -78 -55 -108 -75 -30 -20 -68
-49 -85 -64 -16 -16 -55 -38 -85 -51 -30 -13 -68 -33 -85 -45 -57 -42 -146
-56 -177 -27 -26 23 -23 38 16 80 18 21 41 54 50 74 12 25 32 45 65 62 26 15
54 38 61 53 8 14 35 40 60 57 25 16 66 51 93 76 26 25 74 71 107 101 33 30 75
71 93 90 17 18 55 57 83 85 29 27 60 65 70 83 10 18 33 41 51 52 18 10 41 37
52 58 19 37 43 61 85 87 10 6 20 30 24 60 6 45 11 52 45 68 31 16 50 37 32 37
-41 0 -116 -28 -146 -55 -20 -18 -51 -36 -68 -40 -20 -4 -45 -23 -68 -50 -20
-24 -49 -49 -64 -55 -14 -6 -40 -25 -55 -42 -16 -17 -60 -54 -99 -83 -82 -61
-181 -156 -250 -240 -27 -33 -69 -81 -92 -107 -24 -26 -50 -63 -60 -83 -9 -19
-32 -44 -50 -55 -23 -14 -41 -36 -54 -69 -15 -34 -31 -54 -54 -67 -21 -11 -41
-33 -51 -57 -10 -22 -35 -53 -56 -70 -21 -17 -50 -50 -63 -74 -14 -24 -29 -43
-33 -43 -4 0 -30 -22 -59 -48 -29 -27 -63 -53 -75 -59 -13 -6 -53 -25 -90 -43
-60 -29 -70 -31 -101 -21 -47 16 -61 35 -63 85 -2 57 10 75 64 98 26 11 70 42
97 69 28 27 93 90 147 141 76 74 98 102 107 135 7 27 19 44 31 48 42 13 47 75
6 75 -33 0 -178 -91 -259 -161 -23 -20 -65 -48 -93 -62 -27 -14 -70 -42 -94
-62 -24 -20 -71 -49 -104 -64 -74 -34 -147 -86 -236 -168 -37 -34 -89 -73
-116 -86 -27 -14 -67 -39 -89 -57 -22 -18 -56 -40 -75 -50 -19 -10 -52 -32
-74 -49 -35 -28 -45 -31 -112 -31 -61 0 -78 4 -94 20 -24 24 -24 23 -4 80 20
57 46 86 109 117 28 14 75 50 106 82 31 31 66 64 78 74 24 20 28 59 6 77 -27
22 -170 -13 -215 -54 -31 -28 -52 -36 -126 -50 -49 -9 -103 -16 -119 -16 -47
0 -93 -16 -128 -46 -39 -33 -129 -74 -160 -73 -12 0 -42 10 -67 22 -64 31 -63
52 5 106 30 24 67 60 82 80 32 42 63 70 79 71 6 0 17 7 24 15 15 18 -8 29 -82
38 -40 6 -54 2 -110 -29 -34 -19 -92 -49 -128 -66 -36 -18 -85 -45 -109 -60
-38 -23 -56 -28 -111 -28 -104 0 -123 40 -40 87 29 16 67 50 88 78 30 40 50
55 100 74 50 20 62 29 62 47 0 29 -16 34 -106 34 -84 0 -95 -4 -169 -65 -29
-23 -75 -50 -101 -60 -27 -9 -64 -23 -82 -31 -56 -24 -71 -19 -93 31 -11 25
-19 60 -17 78 3 34 -10 28 203 90 89 26 38 78 -84 85 -102 6 -174 -15 -221
-63 -61 -63 -129 -38 -146 53 -4 19 -13 47 -20 61 -8 14 -17 41 -20 60 -4 19
-13 46 -20 60 -8 14 -14 31 -14 38 0 9 -8 9 -30 1 -50 -17 -84 4 -113 70 -36
80 -51 143 -43 178 8 31 129 153 178 180 16 8 30 26 33 42 3 15 10 41 16 57
16 48 15 50 -12 53 -22 3 -29 -3 -40 -27 -10 -21 -23 -32 -44 -36 -54 -11 -90
-28 -123 -59 -29 -27 -34 -29 -48 -14 -17 17 -44 128 -38 156 19 90 39 164 54
197 23 52 40 376 20 399 -21 27 -39 5 -65 -80 -21 -68 -32 -88 -59 -109 -39
-30 -47 -47 -80 -170 -13 -49 -38 -129 -55 -176 -61 -169 -65 -429 -10 -614
39 -134 57 -211 73 -315 12 -80 26 -125 57 -190 22 -47 49 -112 61 -145 11
-32 31 -78 44 -101 33 -56 24 -144 -16 -155 -51 -14 -91 -9 -143 20 -28 16
-128 55 -222 87 -227 76 -240 82 -317 149 -82 71 -93 94 -107 215 -5 52 -18
163 -27 245 -20 179 -16 407 9 505 9 36 28 121 43 190 16 77 40 158 64 210 21
47 45 109 55 138 9 29 31 74 49 100 18 26 41 63 51 82 9 19 38 60 64 90 26 30
58 71 71 90 14 19 49 62 78 95 29 33 79 89 110 124 65 73 156 172 223 240 25
26 55 63 66 82 12 19 37 48 55 65 18 17 65 68 103 114 73 87 210 223 252 251
14 9 38 33 55 53 16 20 49 47 73 61 24 14 50 37 59 50 9 14 40 40 69 58 28 19
61 44 72 57 11 12 47 41 80 63 33 22 78 55 101 74 22 18 62 42 89 54 27 12 76
40 109 63 34 23 84 50 111 60 28 11 63 28 80 40 46 33 85 51 145 71 30 9 80
30 110 46 123 65 452 168 633 198 63 11 160 31 214 45 156 41 219 47 553 53
356 6 505 -4 650 -42 52 -14 168 -40 257 -59 89 -19 188 -46 220 -60 32 -15
92 -38 133 -52 41 -14 113 -47 160 -73 47 -27 101 -57 120 -66 19 -10 53 -32
75 -50 22 -18 60 -42 85 -55 25 -12 61 -35 81 -51 19 -15 60 -44 90 -63 60
-40 142 -110 198 -170 20 -21 55 -57 77 -80 23 -22 54 -61 69 -86 16 -24 46
-67 68 -95 22 -27 50 -73 63 -101 22 -50 64 -94 88 -94 7 0 25 -14 41 -30 35
-37 42 -31 51 41 6 49 4 58 -18 84 -14 17 -43 68 -65 115 -23 47 -53 99 -68
115 -15 17 -38 52 -52 79 -37 73 -163 235 -284 367 l-107 116 -7 72 c-6 66 -5
74 13 86 10 8 25 28 32 45 16 39 7 50 -69 80 -30 12 -71 34 -92 51 -21 16 -68
43 -106 60 -37 17 -108 50 -158 75 -49 25 -132 56 -183 69 -51 14 -107 32
-124 41 -62 32 -143 54 -272 75 -72 11 -189 36 -261 54 -158 40 -178 43 -481
55 -385 16 -704 -5 -869 -57 -91 -28 -247 -63 -285 -63 -40 0 -139 -28 -205
-57 -33 -14 -101 -37 -152 -49 -50 -13 -125 -39 -166 -58 -41 -19 -114 -47
-163 -62 -49 -15 -94 -31 -99 -35 -22 -16 -141 -72 -192 -90 -30 -10 -67 -28
-83 -39 -17 -12 -72 -41 -123 -65 -99 -46 -274 -152 -317 -190 -14 -13 -50
-39 -80 -58 -30 -19 -68 -49 -85 -67 -16 -17 -41 -38 -55 -45 -14 -7 -34 -22
-46 -33 -11 -11 -52 -44 -91 -74 -158 -122 -373 -323 -558 -521 -33 -35 -78
-84 -101 -108 -22 -24 -65 -80 -94 -124 -29 -44 -63 -91 -75 -105 -12 -14 -33
-46 -48 -71 -14 -25 -42 -58 -62 -73 -19 -15 -35 -32 -35 -39 0 -24 -169 -174
-216 -192 -26 -10 -75 -33 -108 -53 -34 -19 -81 -40 -106 -48 -62 -19 -109
-49 -120 -78 -14 -37 -41 -47 -153 -55 -160 -13 -281 13 -301 65 -11 29 -6
148 9 214 12 52 22 71 51 95 19 17 41 49 48 70 8 22 20 42 28 46 84 38 93 45
106 86 12 37 19 44 51 53 39 10 66 33 85 73 7 12 28 30 48 39 20 10 51 36 69
58 18 22 60 58 93 80 34 21 77 56 96 76 19 20 52 47 73 61 21 13 48 40 59 59
11 19 38 44 59 54 44 23 60 47 53 78 -7 26 35 57 66 47 40 -13 94 44 56 58
-21 8 -112 -38 -131 -66 -17 -27 -49 -42 -108 -52 -29 -5 -43 -14 -62 -44 -14
-24 -36 -43 -57 -50 -18 -6 -59 -37 -90 -69 -98 -99 -145 -142 -205 -186 -32
-23 -71 -58 -87 -77 -54 -66 -141 -152 -183 -180 -23 -16 -68 -63 -98 -104
-31 -41 -63 -75 -70 -75 -7 0 -36 -11 -64 -25 -56 -28 -80 -23 -100 23 -14 30
-2 54 43 82 23 13 39 34 47 58 15 46 42 95 107 196 29 43 52 84 52 90 0 7 13
25 30 41 16 16 30 37 30 47 0 25 -59 24 -110 -2 -22 -11 -46 -20 -54 -20 -17
0 -66 -56 -66 -75 0 -12 -24 -39 -145 -166 -11 -11 -48 -39 -83 -61 -61 -39
-64 -40 -118 -32 -53 9 -56 11 -82 57 -33 61 -28 70 73 124 50 26 92 58 118
87 21 26 60 57 86 70 35 18 49 33 59 60 7 20 22 41 33 46 10 6 19 19 19 30 0
21 -25 31 -147 55 -98 19 -107 16 -161 -58 -33 -43 -50 -56 -105 -78 -78 -31
-94 -25 -121 42 -16 39 -16 43 3 79 74 143 336 402 507 501 24 14 56 37 71 51
16 14 62 48 103 76 41 27 89 64 105 82 17 17 53 43 80 57 28 14 65 39 83 54
18 16 38 29 44 29 15 0 140 50 155 62 6 5 13 24 15 41 3 27 7 32 33 35 83 7
97 14 155 72 40 41 70 62 99 70 94 25 89 66 -7 56 -83 -9 -100 -18 -104 -58
-3 -30 -6 -32 -59 -43 -67 -13 -103 -35 -124 -74 -12 -25 -23 -31 -62 -35 -84
-10 -132 -25 -175 -54 -68 -45 -82 -52 -110 -52 -62 0 -296 -111 -386 -182
-26 -20 -72 -52 -102 -71 -30 -19 -72 -51 -94 -71 -21 -20 -55 -45 -75 -55
-20 -11 -50 -35 -68 -55 -29 -34 -35 -36 -92 -36 -56 0 -61 2 -67 24 -3 13 1
37 9 52 8 16 17 43 21 59 15 60 202 268 311 345 22 15 55 44 73 64 18 20 49
44 70 55 21 11 44 27 52 36 7 9 45 38 84 65 39 27 83 65 98 83 18 23 46 41 87
56 66 24 104 62 83 83 -21 21 -204 -6 -260 -38 -26 -15 -76 -42 -112 -61 -35
-18 -78 -46 -95 -63 -37 -36 -176 -126 -270 -176 -38 -20 -85 -50 -103 -65
-18 -16 -39 -29 -46 -29 -23 0 -46 35 -56 89 -12 63 -4 81 44 109 20 12 51 43
70 70 19 26 47 54 61 62 14 8 41 35 60 61 19 27 45 55 59 64 13 9 41 42 61 73
42 66 104 115 184 146 81 32 125 64 226 162 50 48 105 93 123 101 55 23 72 47
72 101 0 26 -5 53 -12 60 -16 16 -53 15 -68 -2 -17 -21 -86 -44 -155 -51 -58
-7 -62 -9 -123 -73 -35 -37 -74 -83 -87 -103 -26 -40 -62 -68 -112 -88 -18 -7
-38 -19 -44 -27 -6 -8 -38 -28 -71 -46 -61 -32 -122 -95 -173 -178 -35 -57
-40 -60 -98 -60 -87 0 -100 20 -75 118 20 80 61 134 153 202 33 24 110 94 170
155 113 114 214 188 297 219 34 12 70 41 135 108 48 49 123 115 166 145 42 30
82 63 87 73 5 10 36 31 67 46 32 14 74 39 93 54 19 14 67 46 107 71 40 24 77
54 82 67 6 12 21 26 33 31 13 5 38 15 57 22 18 7 59 34 90 61 35 31 75 54 107
64 55 16 77 33 93 75 7 19 19 28 44 32 48 8 114 53 122 84 3 14 16 38 27 54
16 22 19 32 11 40 -20 20 -43 2 -43 -35 0 -38 -12 -46 -67 -46 -43 0 -100 -26
-114 -51 -13 -26 -74 -55 -132 -63 -37 -6 -59 -18 -101 -54 -58 -51 -173 -113
-246 -133 -52 -14 -94 -49 -120 -100 -20 -39 -49 -55 -120 -64 -53 -8 -94 6
-134 43 l-28 27 -17 -25 c-49 -74 -333 -370 -355 -370 -6 0 -38 -14 -71 -30
-33 -16 -68 -30 -77 -30 -9 0 -23 -8 -30 -18 -17 -24 -56 -45 -68 -37 -17 11
-11 41 14 66 13 13 28 41 34 62 11 41 36 73 151 202 40 44 85 107 101 141 30
62 46 80 92 103 16 9 39 37 56 70 34 68 61 76 119 37 52 -36 60 -34 91 31 19
41 40 66 72 88 37 25 48 41 63 87 15 45 25 58 53 71 35 17 45 41 20 50 -8 3
-40 2 -72 -2 -49 -7 -62 -14 -88 -44 -17 -19 -50 -45 -74 -57 -25 -12 -51 -34
-60 -52 -37 -69 -58 -81 -123 -75 -76 8 -82 5 -118 -58 -17 -30 -41 -60 -53
-66 -13 -7 -44 -30 -69 -51 -78 -65 -109 -43 -109 76 0 56 4 68 33 107 18 24
39 58 46 75 17 42 162 173 224 201 28 13 80 45 116 72 36 27 75 51 86 55 12 3
38 24 59 46 21 23 53 47 71 54 18 8 50 30 71 49 22 19 71 52 109 73 39 20 88
54 111 74 27 25 63 44 111 58 55 17 80 31 108 61 24 25 53 44 81 51 60 17 203
153 187 178 -18 30 -77 27 -115 -6 -41 -36 -99 -66 -157 -82 -24 -6 -58 -25
-75 -42 -36 -36 -70 -51 -150 -68 -67 -14 -306 -129 -351 -170 -16 -15 -61
-37 -100 -49 -66 -21 -70 -21 -82 -5 -21 29 -15 63 16 92 15 15 36 47 45 72
10 26 30 59 45 75 15 17 45 55 66 85 126 179 332 375 430 406 27 9 82 33 120
54 39 21 113 50 165 64 52 14 106 35 120 46 49 39 96 57 190 74 52 10 140 33
195 52 55 19 167 48 248 65 81 16 171 39 200 51 78 31 159 55 292 88 66 16
156 40 200 54 43 14 124 35 180 47 134 28 184 46 222 80 36 31 54 35 188 44
127 9 225 29 289 60 56 26 77 31 301 60 66 9 152 27 190 41 119 43 172 52 435
79 140 14 323 35 405 46 116 17 177 20 271 16 134 -6 185 6 304 72 81 45 159
44 266 -5z m-4366 -6400 c19 -29 22 -44 16 -87 -7 -63 -33 -143 -57 -177 -14
-21 -16 -34 -9 -72 7 -37 4 -66 -16 -145 -13 -54 -29 -141 -35 -193 -6 -52
-20 -120 -31 -150 -40 -110 -41 -243 -3 -370 25 -81 32 -265 12 -313 -22 -52
-37 -54 -113 -15 -64 31 -68 35 -86 88 -23 70 -17 108 27 160 25 30 35 52 35
75 0 19 5 37 10 40 17 10 11 35 -7 35 -10 0 -25 -13 -35 -29 -29 -51 -127 -53
-172 -2 -15 17 -17 29 -12 72 10 75 29 105 86 134 72 36 78 54 45 128 -24 52
-27 68 -21 123 6 62 6 63 -23 78 -33 17 -41 34 -41 82 0 28 7 39 40 63 45 33
180 174 180 189 0 15 -47 42 -73 42 -13 0 -46 -15 -72 -32 -39 -26 -64 -34
-120 -40 -129 -13 -201 -10 -224 10 -25 20 -20 29 39 69 25 17 59 45 75 63 47
49 126 89 217 108 50 11 98 29 121 45 21 14 59 29 85 33 26 4 56 10 67 15 45
18 73 10 95 -27z m-849 -295 c15 -15 18 -24 10 -32 -6 -6 -11 -24 -11 -39 0
-21 -6 -29 -26 -34 -33 -8 -50 9 -59 62 -5 36 -3 42 17 52 34 16 46 14 69 -9z
m-226 -89 c0 -9 -11 -16 -27 -18 -30 -4 -31 -2 -22 21 7 19 49 16 49 -3z m503
-264 c3 -3 7 -28 10 -56 4 -46 2 -52 -29 -83 -29 -29 -44 -35 -96 -41 -72 -8
-100 2 -109 41 -8 32 3 52 47 80 19 12 50 34 69 48 33 25 88 30 108 11z"/>
<path d="M8051 8171 c-19 -12 -4 -31 25 -31 26 0 31 9 12 28 -14 14 -19 15
-37 3z"/>
<path d="M3130 8082 c-9 -4 -27 -15 -40 -25 -25 -18 -25 -18 -5 -33 26 -19 85
-14 99 9 20 32 -17 66 -54 49z"/>
<path d="M8160 8075 c-10 -12 -10 -21 -2 -40 13 -28 56 -34 93 -14 24 12 13
31 -32 55 -35 18 -44 18 -59 -1z"/>
<path d="M2996 7691 c-24 -27 -17 -55 15 -59 34 -4 68 32 53 56 -16 25 -47 26
-68 3z"/>
<path d="M2878 7597 c-14 -12 -32 -33 -39 -47 -6 -14 -29 -40 -50 -58 -39 -34
-50 -69 -30 -101 14 -22 53 -5 80 34 13 19 45 50 71 69 47 34 77 83 66 111 -8
23 -67 19 -98 -8z"/>
<path d="M2300 7310 c0 -19 3 -21 12 -12 9 9 9 15 0 24 -9 9 -12 7 -12 -12z"/>
<path d="M2173 7228 c-25 -12 -35 -31 -27 -53 16 -40 94 -15 94 31 0 13 -4 24
-9 24 -5 0 -15 2 -23 4 -7 3 -23 0 -35 -6z"/>
<path d="M9025 6730 c-9 -15 4 -50 20 -50 18 0 28 30 14 46 -14 17 -25 18 -34
4z"/>
<path d="M9111 6626 c-10 -12 -8 -36 8 -112 23 -109 35 -131 50 -91 12 31 18
188 7 205 -10 17 -51 15 -65 -2z"/>
<path d="M2636 6381 c-21 -23 -18 -49 7 -65 21 -14 70 10 75 37 9 44 -50 63
-82 28z"/>
<path d="M9142 6286 c-13 -63 13 -238 65 -423 l28 -101 -21 -64 c-26 -80 -19
-153 23 -229 33 -62 55 -79 81 -63 19 13 20 94 2 189 -12 65 -13 143 -4 281 6
102 5 121 -21 225 -25 102 -32 118 -65 149 -20 19 -42 45 -49 58 -17 33 -28
27 -39 -22z"/>
<path d="M2488 6258 c-43 -15 -59 -27 -68 -48 -16 -39 -37 -56 -87 -71 -43
-12 -59 -38 -25 -40 104 -5 152 13 152 56 0 28 15 40 59 49 41 7 61 23 61 46
0 14 -24 34 -33 29 -1 0 -28 -10 -59 -21z"/>
<path d="M2160 6020 c-12 -7 -12 -12 -2 -22 13 -13 49 1 45 18 -3 13 -26 15
-43 4z"/>
<path d="M2640 5800 c-14 -4 -44 -13 -67 -19 -30 -8 -47 -20 -61 -45 -15 -25
-30 -36 -64 -44 -44 -11 -75 -37 -97 -80 -7 -13 -43 -38 -86 -59 -57 -27 -76
-42 -84 -64 -11 -31 -44 -49 -89 -49 -41 0 -92 -35 -92 -64 0 -45 43 -47 133
-7 56 25 66 34 72 61 7 34 35 50 87 50 21 0 40 11 67 37 20 20 65 49 101 65
94 42 92 41 125 88 18 26 42 47 59 51 36 10 56 27 56 50 0 24 -29 38 -60 29z"/>
<path d="M2762 5294 c-49 -34 -7 -82 43 -50 30 20 32 42 6 56 -25 13 -22 13
-49 -6z"/>
<path d="M2891 4784 c-12 -15 -21 -30 -21 -34 0 -4 -24 -19 -54 -33 -34 -16
-61 -38 -73 -57 -10 -17 -29 -34 -43 -37 -43 -10 -134 -60 -160 -87 -13 -15
-48 -34 -77 -42 -38 -11 -61 -25 -81 -50 -15 -19 -50 -48 -79 -64 -29 -17 -59
-42 -67 -57 -8 -16 -35 -45 -60 -66 -40 -33 -46 -43 -46 -75 0 -38 22 -82 41
-82 6 0 52 37 102 83 51 45 108 92 128 105 20 12 49 38 64 58 16 20 49 45 79
58 28 13 60 35 69 50 10 14 52 43 95 65 52 27 83 49 95 70 20 35 37 45 87 56
55 11 70 30 70 91 0 42 -4 55 -19 64 -27 14 -27 14 -50 -16z"/>
<path d="M1936 4315 c-8 -8 -18 -24 -21 -35 -4 -14 -19 -22 -46 -26 -58 -10
-84 -36 -108 -106 -35 -103 -23 -148 40 -148 37 0 71 35 88 90 7 23 28 58 47
79 30 34 34 45 34 94 0 61 -10 76 -34 52z"/>
<path d="M4275 2060 c-27 -5 -79 -9 -115 -9 -80 -1 -165 -23 -194 -50 -11 -11
-42 -29 -68 -40 -52 -22 -52 -22 -49 -121 4 -92 19 -104 35 -28 8 38 40 65 85
72 44 7 78 40 83 81 4 37 34 43 204 44 97 1 113 3 129 21 17 19 17 20 -9 30
-30 11 -28 11 -101 0z"/>
<path d="M4010 1692 c-70 -26 -70 -27 24 -42 70 -11 226 8 250 31 33 30 -196
40 -274 11z"/>
<path d="M4810 1436 c0 -19 14 -28 34 -20 25 10 19 34 -9 34 -15 0 -25 -6 -25
-14z"/>
<path d="M5280 1215 c-16 -19 -5 -35 25 -35 26 0 39 22 22 39 -15 15 -32 14
-47 -4z"/>
</g></g>
  <g transform="translate(0.000000,2048.000000) scale(0.100000,-0.100000)"
fill="#FFFFFF" stroke="none">
<path d="M17855 14649 c-272 -33 -543 -120 -754 -241 -96 -56 -210 -134 -261
-178 -19 -17 -50 -43 -69 -58 -56 -44 -210 -221 -272 -314 -157 -233 -237
-424 -296 -708 -23 -113 -26 -148 -26 -365 -1 -159 3 -262 12 -305 7 -36 17
-87 22 -115 42 -218 141 -455 272 -650 73 -110 89 -129 186 -230 98 -102 298
-265 326 -265 4 0 27 -14 51 -31 66 -45 233 -122 356 -163 317 -107 689 -134
1058 -75 90 14 324 79 355 99 6 3 46 21 90 40 147 63 336 183 438 279 27 26
52 47 57 49 16 6 174 194 217 258 73 107 159 271 149 281 -4 4 -82 13 -174 20
-92 7 -230 18 -307 24 -77 6 -183 14 -235 18 l-95 7 -74 -73 c-201 -200 -391
-290 -684 -324 -148 -17 -334 3 -482 53 -155 52 -316 145 -430 250 -134 122
-269 357 -300 521 l-7 37 1461 0 1460 0 13 23 c17 31 17 507 0 602 -36 198
-41 219 -75 330 -142 457 -452 818 -877 1023 -95 45 -214 91 -295 112 -16 5
-55 15 -85 23 -190 49 -521 71 -725 46z m510 -739 c44 -12 95 -25 113 -30 54
-13 213 -97 277 -145 203 -153 314 -316 390 -572 l6 -23 -1075 0 c-591 0
-1077 3 -1079 8 -8 12 21 91 73 197 97 199 271 372 470 467 120 57 135 64 170
73 14 3 41 11 60 16 106 30 191 38 350 34 129 -2 183 -8 245 -25z"/>
<path d="M13725 14625 c-116 -20 -287 -67 -365 -102 -161 -70 -304 -153 -402
-233 -35 -27 -66 -50 -70 -50 -5 0 -8 82 -8 181 l0 182 -387 -6 c-214 -3 -389
-6 -391 -6 -1 -1 -1 -812 0 -1803 l3 -1803 388 -3 387 -2 0 990 c0 627 4 1018
10 1063 36 251 128 437 292 593 121 114 209 168 365 220 166 56 356 69 523 38
47 -9 97 -18 113 -21 15 -3 30 -9 33 -14 3 -5 12 -9 20 -9 23 0 142 -59 207
-103 86 -57 188 -157 244 -240 51 -74 113 -195 113 -219 0 -8 4 -18 8 -23 5
-6 13 -28 19 -50 6 -22 17 -58 24 -80 10 -31 14 -269 16 -1090 l4 -1050 384
-3 385 -2 0 1087 c0 679 -4 1111 -10 1152 -39 258 -74 378 -160 556 -147 305
-362 530 -650 682 -164 86 -303 132 -510 168 -104 18 -481 18 -585 0z"/>
<path d="M23852 11353 c-4 -10 -7 -1163 -7 -2563 l0 -2545 375 0 375 0 0 2560
0 2560 -368 3 c-343 2 -368 1 -375 -15z"/>
<path d="M18618 10434 c-5 -4 -8 -267 -8 -585 0 -318 -4 -580 -9 -583 -4 -3
-17 4 -27 15 -40 44 -207 150 -324 205 -108 50 -109 51 -175 73 -156 51 -220
66 -375 86 -278 35 -579 4 -845 -86 -139 -48 -312 -135 -438 -222 -117 -80
-296 -252 -387 -372 -110 -145 -234 -383 -271 -520 -4 -16 -13 -48 -19 -70
-35 -125 -60 -312 -60 -455 0 -169 23 -322 79 -535 31 -116 137 -324 234 -460
84 -116 259 -296 368 -377 69 -52 252 -168 263 -168 3 0 36 -14 73 -31 37 -17
77 -35 88 -40 40 -17 211 -67 270 -79 33 -6 83 -17 110 -23 31 -7 150 -12 310
-12 233 0 271 3 365 23 115 25 299 80 314 93 6 5 17 9 25 9 37 1 263 128 361
202 28 21 55 38 60 38 6 0 10 -62 10 -160 l0 -160 363 2 362 3 3 2084 c1 1342
-1 2088 -8 2095 -11 11 -701 22 -712 10z m-973 -1469 c157 -22 263 -54 390
-119 306 -155 517 -439 571 -766 55 -334 -59 -673 -305 -908 -164 -157 -328
-241 -581 -297 -78 -18 -352 -20 -414 -4 -22 6 -59 15 -81 21 -129 34 -270 96
-362 160 -65 44 -187 162 -239 230 -140 185 -207 392 -207 638 1 225 55 399
186 595 51 76 184 209 262 262 130 88 329 167 464 183 174 22 194 22 316 5z"/>
<path d="M8955 9649 c-320 -48 -624 -175 -836 -351 -53 -44 -71 -48 -68 -15 1
12 1 88 1 170 l-2 147 -366 -2 -366 -3 1 -2265 1 -2265 365 0 365 0 0 737 c0
423 4 739 9 743 5 3 16 -1 24 -9 51 -52 294 -194 422 -247 259 -108 600 -151
915 -114 132 15 212 28 270 44 19 6 51 14 70 19 42 11 127 40 155 52 11 4 41
17 67 29 26 12 50 21 52 21 9 0 177 100 248 148 157 106 328 281 455 467 33
48 117 214 147 290 75 188 104 317 127 551 22 225 -28 545 -120 779 -25 63
-116 239 -152 295 -72 112 -216 277 -309 355 -290 243 -597 377 -973 425 -94
12 -418 11 -502 -1z m344 -680 c362 -58 622 -216 802 -491 73 -111 107 -184
139 -304 63 -234 41 -475 -65 -701 -143 -305 -434 -531 -780 -604 -127 -27
-441 -15 -555 21 -14 4 -45 14 -70 21 -25 7 -81 31 -125 53 -316 156 -531 441
-591 780 -34 197 0 424 95 620 86 177 249 354 419 453 207 121 519 186 731
152z"/>
<path d="M13080 9648 c-30 -4 -84 -13 -120 -19 -89 -14 -140 -26 -245 -60
-104 -34 -97 -31 -240 -99 -451 -215 -805 -655 -918 -1142 -39 -163 -42 -196
-41 -408 1 -319 37 -488 163 -755 211 -447 650 -803 1131 -919 389 -93 748
-84 1105 30 150 47 363 156 482 245 29 21 56 39 60 39 4 0 8 -71 8 -158 l0
-157 368 -3 367 -2 0 1680 0 1680 -363 0 -364 0 -6 -166 c-4 -92 -9 -169 -12
-172 -3 -3 -20 8 -38 25 -72 68 -233 163 -397 236 -72 32 -224 78 -335 102
-148 33 -473 45 -605 23z m390 -678 c154 -18 245 -44 386 -110 273 -126 474
-349 568 -630 29 -87 56 -234 56 -303 0 -66 -26 -229 -49 -311 -87 -301 -329
-554 -656 -687 -31 -12 -154 -46 -213 -58 -78 -16 -344 -14 -422 4 -261 58
-427 143 -584 301 -142 142 -239 318 -287 524 -17 72 -18 348 -1 420 33 146
90 281 163 385 177 256 450 419 769 460 134 17 167 17 270 5z"/>
<path d="M21340 9649 c-129 -20 -277 -54 -365 -84 -459 -155 -812 -468 -1023
-906 -43 -90 -106 -288 -121 -379 -7 -41 -17 -94 -22 -117 -15 -68 -11 -421 6
-526 41 -253 110 -444 237 -650 68 -111 130 -189 228 -287 168 -170 314 -269
530 -363 137 -59 259 -93 460 -129 113 -20 521 -17 627 5 212 43 328 82 511
174 282 142 547 402 693 681 26 50 39 86 33 91 -5 5 -92 14 -194 20 -102 7
-232 16 -290 21 -58 5 -145 12 -193 16 l-88 7 -65 -67 c-108 -109 -255 -199
-409 -251 -122 -41 -384 -59 -493 -34 -112 25 -140 32 -197 51 -235 80 -450
264 -567 488 -35 67 -78 185 -78 214 0 15 113 16 1359 16 l1358 0 12 88 c36
284 -10 619 -125 907 -44 110 -136 272 -214 376 -73 98 -264 278 -368 348
-307 206 -642 303 -1035 300 -84 -1 -177 -5 -207 -10z m420 -684 c108 -19 142
-27 210 -55 232 -93 409 -253 512 -461 26 -53 67 -182 62 -191 -6 -9 -1967
-11 -1976 -3 -17 17 83 228 148 314 154 205 367 336 643 396 79 18 300 17 401
0z"/>
</g>
</svg>